<?xml version="1.0" encoding="utf-8"?>
<!-- Generator: Adobe Illustrator 24.2.1, SVG Export Plug-In . SVG Version: 6.00 Build 0)  -->
<!DOCTYPE svg PUBLIC "-//W3C//DTD SVG 1.1//EN" "http://www.w3.org/Graphics/SVG/1.1/DTD/svg11.dtd" [
	<!ENTITY ns_extend "http://ns.adobe.com/Extensibility/1.0/">
	<!ENTITY ns_ai "http://ns.adobe.com/AdobeIllustrator/10.0/">
	<!ENTITY ns_graphs "http://ns.adobe.com/Graphs/1.0/">
	<!ENTITY ns_vars "http://ns.adobe.com/Variables/1.0/">
	<!ENTITY ns_imrep "http://ns.adobe.com/ImageReplacement/1.0/">
	<!ENTITY ns_sfw "http://ns.adobe.com/SaveForWeb/1.0/">
	<!ENTITY ns_custom "http://ns.adobe.com/GenericCustomNamespace/1.0/">
	<!ENTITY ns_adobe_xpath "http://ns.adobe.com/XPath/1.0/">
]>
<svg version="1.1" id="Layer_1" xmlns:x="&ns_extend;" xmlns:i="&ns_ai;" xmlns:graph="&ns_graphs;"
	 xmlns="http://www.w3.org/2000/svg" xmlns:xlink="http://www.w3.org/1999/xlink" x="0px" y="0px" width="2048px" height="2048px"
	 viewBox="0 0 2048 2048" style="enable-background:new 0 0 2048 2048;" xml:space="preserve">
<style type="text/css">
	.Drop_x0020_Shadow{fill:none;}
	.Round_x0020_Corners_x0020_2_x0020_pt{fill:#FFFFFF;stroke:#231F20;stroke-miterlimit:10;}
	.Live_x0020_Reflect_x0020_X{fill:none;}
	.Bevel_x0020_Soft{fill:url(#SVGID_1_);}
	.Dusk{fill:#FFFFFF;}
	.Foliage_GS{fill:#FFDD00;}
	.Pompadour_GS{fill-rule:evenodd;clip-rule:evenodd;fill:#44ADE2;}
	.st0{enable-background:new    ;}
	.st1{fill:#858746;}
	.st2{fill:#DDDE81;}
	.st3{fill:#8CB734;}
	.st4{fill:#4A4A4A;}
	.st5{fill:#E5ECF2;}
	.st6{fill:#7585B8;}
	.st7{fill:#5669A1;}
	.st8{fill:#3F518F;}
	.st9{fill:#435593;}
	.st10{fill:#4B5B8E;}
	.st11{fill:#82A4D2;}
	.st12{fill:#7AABCB;}
	.st13{fill:#354C78;}
	.st14{fill:#5E83A2;}
	.st15{fill:#6993B5;}
	.st16{fill:#ADC0CC;}
	.st17{fill:#CFD7DC;}
	.st18{fill:#87A9CF;}
	.st19{fill:#6797BB;}
	.st20{fill:#B9C0C5;}
	.st21{fill:#B3D3DE;}
	.st22{fill:#23313C;}
	.st23{fill:#384E61;}
	.st24{fill:#41608E;}
	.st25{fill:#324657;}
	.st26{fill:#FFFFFF;}
	.st27{fill:#0836A3;}
	.st28{fill:#FFFDFE;}
	.st29{fill:#D3E1ED;}
	.st30{fill:#2A7C00;}
	.st31{fill:#A34C00;}
	.st32{fill:#5BA81C;}
	.st33{fill:#FF8F91;}
	.st34{fill:#FFA4A5;}
</style>
<metadata>
	<sfw  xmlns="&ns_sfw;">
		<slices></slices>
		<sliceSourceBounds  bottomLeftOrigin="true" height="1536" width="1861" x="93.5" y="-1792"></sliceSourceBounds>
	</sfw>
</metadata>
<linearGradient id="SVGID_1_" gradientUnits="userSpaceOnUse" x1="0" y1="0" x2="0.7071" y2="0.7071">
	<stop  offset="0" style="stop-color:#DEDFE3"/>
	<stop  offset="0.1783" style="stop-color:#DADBDF"/>
	<stop  offset="0.3611" style="stop-color:#CECFD3"/>
	<stop  offset="0.546" style="stop-color:#B9BCBF"/>
	<stop  offset="0.7324" style="stop-color:#9CA0A2"/>
	<stop  offset="0.9181" style="stop-color:#787D7E"/>
	<stop  offset="1" style="stop-color:#656B6C"/>
</linearGradient>
<g>
	<g>
		<g>
			<g class="st0">
				<g>
					<polygon class="st1" points="1954.5,1142.9 1954.2,1253.1 1026.9,1792 1027.2,1681.8 					"/>
				</g>
				<g>
					<polygon class="st2" points="1027.2,1681.8 1026.9,1792 93.5,1253.1 93.8,1142.9 					"/>
				</g>
				<g>
					<polygon class="st3" points="1954.5,1142.9 1735.9,1270 1715.5,1281.8 1626.2,1333.7 1605.9,1345.5 1027.2,1681.8 
						622.5,1448.1 602.4,1436.5 514.5,1385.8 494.5,1374.2 93.8,1142.9 624.6,834.4 645.5,822.3 737.1,769.1 758,756.9 1021.1,604 
						1364.4,802.2 1385.4,814.3 1477.5,867.5 1498.5,879.6 					"/>
				</g>
			</g>
		</g>
		<g>
			<path class="st4" d="M1715.5,1281.8l-89.3,51.9l-409.1-264.2c-26.3-17-59.8-17.8-86.9-2.2l-6.6,3.8l-233.7,163.9
				c-17.1,12-16.1,37.8,1.9,48.4l218.6,128.8l-97,50.3l-201.3-119.3c-25.2-15-56.9-13.7-80.9,3.1l-128.8,90.3l-87.9-50.7
				l468.6-328.5c14.2-10,13.3-31.4-1.7-40.1L645.5,822.3l91.6-53.2L1067,960.5c19.8,11.5,44.3,11.5,64.1,0.1l254.2-146.3l92.1,53.2
				l-155.8,89.7c-26.3,15.1-27.3,52.7-1.8,69.2L1715.5,1281.8z"/>
			<path class="st5" d="M1364.4,802.2l-243.7,140.2c-6.5,3.8-14,5.7-21.5,5.7c-7.6,0-15.1-2-21.6-5.8L758,756.9l-20.9,12.2
				L1067,960.5c9.9,5.8,21.1,8.7,32.2,8.7c11,0,22.1-2.9,32-8.5l254.2-146.3L1364.4,802.2z M981.4,1017.2L645.5,822.3l-20.9,12.2
				l10.4,6l335.8,194.9c0.3,0.2,1.3,0.8,1.4,2.3c0.1,1.6-0.9,2.2-1.2,2.4l-468.5,328.5l-8,5.6l20.1,11.6l468.6-328.5
				C997.3,1047.3,996.4,1025.9,981.4,1017.2z M1726.9,1264.2l-395.6-255.5c-8.3-5.4-9-13.6-8.9-16.9c0.1-3.3,1.2-11.5,9.8-16.4
				l155.8-89.7l10.5-6.1l-21-12.1l-155.8,89.7c-26.3,15.1-27.3,52.7-1.8,69.2l395.6,255.5l20.4-11.8L1726.9,1264.2z M1217.1,1069.5
				c-13.8-8.9-29.5-13.3-45.3-13.3c-14.3,0-28.7,3.7-41.6,11.1l-6.6,3.8l-233.7,163.9c-17.1,12-16.1,37.8,1.9,48.4l218.6,128.8
				l-97,50.3l-201.3-119.3c-11.8-7-24.9-10.4-38.1-10.4c-15,0-30,4.5-42.8,13.5l-128.8,90.3l20.1,11.6l120.8-84.7
				c9.1-6.4,19.7-9.7,30.8-9.7c9.6,0,19.1,2.6,27.4,7.5l201.3,119.3l10,5.9l10.4-5.4l97-50.3l33.7-17.5l-32.7-19.3l-218.6-128.8
				c-3.2-1.9-3.8-4.8-3.8-6.4c-0.1-1.6,0.3-4.6,3.3-6.7l232.9-163.3l5.8-3.3c9.5-5.5,20.2-8.3,31.1-8.3c12.1,0,23.8,3.5,33.9,10
				l400.1,258.4l20.4-11.8L1217.1,1069.5z"/>
		</g>
		<g>
			<g>
				<g>
					<g class="st0">
						<g>
							<polygon class="st6" points="849.4,793.9 782,754.7 781.8,669.3 849.2,708.5 							"/>
						</g>
						<g>
							<polygon class="st7" points="849.2,708.5 781.8,669.3 922.6,588 990,627.2 							"/>
						</g>
						<g>
							<polygon class="st8" points="990,627.2 990.3,712.6 849.4,793.9 849.2,708.5 							"/>
						</g>
					</g>
				</g>
				<g>
					<g class="st0">
						<g>
							<polygon class="st9" points="806.7,709.9 811.1,707.4 811,745.4 806.6,748 							"/>
						</g>
						<g>
							<polygon class="st10" points="792,701.4 796.4,698.8 811.1,707.4 806.7,709.9 							"/>
						</g>
						<g>
							<polygon class="st11" points="806.7,709.9 806.6,748 791.9,739.5 792,701.4 							"/>
						</g>
					</g>
				</g>
				<g>
					<g class="st0">
						<g>
							<polygon class="st9" points="830.2,722.4 834.5,719.9 834.4,758 830.1,760.5 							"/>
						</g>
						<g>
							<polygon class="st10" points="815.4,713.9 819.8,711.4 834.5,719.9 830.2,722.4 							"/>
						</g>
						<g>
							<polygon class="st11" points="830.2,722.4 830.1,760.5 815.3,752 815.4,713.9 							"/>
						</g>
					</g>
				</g>
				<g>
					<g class="st0">
						<g>
							<polygon class="st6" points="867.9,734.7 865.6,733.4 865.6,721.2 867.9,722.5 							"/>
						</g>
						<g>
							<polygon class="st7" points="867.9,722.5 865.6,721.2 954.9,669.6 957.2,670.9 							"/>
						</g>
						<g>
							<polygon class="st11" points="957.2,670.9 957.2,683.2 867.9,734.7 867.9,722.5 							"/>
						</g>
					</g>
				</g>
				<g>
					<g class="st0">
						<g>
							<polygon class="st6" points="867.9,755.9 865.6,754.6 865.6,742.3 867.9,743.7 							"/>
						</g>
						<g>
							<polygon class="st7" points="867.9,743.7 865.6,742.3 954.9,690.8 957.2,692.1 							"/>
						</g>
						<g>
							<polygon class="st11" points="957.2,692.1 957.2,704.3 867.9,755.9 867.9,743.7 							"/>
						</g>
					</g>
				</g>
				<polygon class="st8" points="849.5,701.9 793.3,669 922.8,594 979.6,626.9 975.8,629.2 922.8,598.4 800.9,669 853.5,699.7 				
					"/>
				<polygon class="st8" points="853.5,699.7 979.4,627.1 975,624.8 847.7,698.4 				"/>
			</g>
			<polygon class="st6" points="800.9,669 922.8,598.4 971.4,626.7 849.7,697.2 			"/>
		</g>
		<g>
			<g>
				<g>
					<g class="st0">
						<g>
							<polygon class="st12" points="967.9,712.2 1046.1,666.8 1056.6,672.8 978.4,718.2 							"/>
						</g>
						<g>
							<polygon class="st12" points="985.4,722.3 1063.6,676.9 1074,682.9 995.8,728.3 							"/>
						</g>
						<g>
							<polygon class="st13" points="968,677.2 1046.2,631.8 1046.1,666.8 967.9,712.2 							"/>
						</g>
						<g>
							<polygon class="st14" points="978.5,683.2 1056.7,637.8 1056.6,672.8 978.4,718.2 							"/>
						</g>
						<g>
							<polygon class="st15" points="968,677.2 1046.2,631.8 1056.7,637.8 978.5,683.2 							"/>
						</g>
						<g>
							<polygon class="st16" points="962.3,653.1 1040.5,607.7 1040.7,607.8 962.5,653.2 							"/>
						</g>
						<g>
							<polygon class="st12" points="1002.8,732.4 1081,686.9 1091.5,693 1013.3,738.4 							"/>
						</g>
						<g>
							<polygon class="st13" points="985.5,687.3 1063.7,641.8 1063.6,676.9 985.4,722.3 							"/>
						</g>
						<g>
							<polygon class="st15" points="985.5,687.3 1063.7,641.8 1074.1,647.9 995.9,693.3 							"/>
						</g>
						<g>
							<polygon class="st14" points="995.9,693.3 1074.1,647.9 1074,682.9 995.8,728.3 							"/>
						</g>
						<g>
							<polygon class="st12" points="1020.3,742.5 1098.5,697 1108.9,703 1030.7,748.5 							"/>
						</g>
						<g>
							<polygon class="st13" points="1002.9,697.4 1081.1,651.9 1081,686.9 1002.8,732.4 							"/>
						</g>
						<g>
							<polygon class="st15" points="1002.9,697.4 1081.1,651.9 1091.6,657.9 1013.4,703.4 							"/>
						</g>
						<g>
							<polygon class="st14" points="1013.4,703.4 1091.6,657.9 1091.5,693 1013.3,738.4 							"/>
						</g>
						<g>
							<polygon class="st13" points="1020.4,707.4 1098.6,662 1098.5,697 1020.3,742.5 							"/>
						</g>
						<g>
							<polygon class="st15" points="1020.4,707.4 1098.6,662 1109,668 1030.8,713.5 							"/>
						</g>
						<g>
							<polygon class="st17" points="962.5,660.8 1040.7,615.4 1114.7,658.1 1036.5,703.5 							"/>
						</g>
						<g>
							<polygon class="st16" points="962.5,653.2 1040.7,607.8 1114.7,650.5 1036.5,695.9 							"/>
						</g>
						<g>
							<polygon class="st17" points="968.1,647.7 1046.3,602.2 1056.7,608.2 978.5,653.7 							"/>
						</g>
						<g>
							<polygon class="st14" points="1030.8,713.5 1109,668 1108.9,703 1030.7,748.5 							"/>
						</g>
						<g>
							<g>
								<path class="st5" d="M962.3,730.6l0.2-69.8l74,42.7l-0.2,69.8L962.3,730.6z M1020.4,707.4l-0.1,35l10.4,6l0.1-35
									L1020.4,707.4 M1002.9,697.4l-0.1,35l10.4,6l0.1-35L1002.9,697.4 M968,677.2l-0.1,35l10.4,6l0.1-35L968,677.2 M985.5,687.3
									l-0.1,35l10.4,6l0.1-35L985.5,687.3"/>
							</g>
						</g>
						<g>
							<polygon class="st17" points="985.6,657.7 1063.8,612.3 1074.2,618.3 996,663.8 							"/>
						</g>
						<g>
							<polygon class="st17" points="1003,667.8 1081.2,622.4 1091.7,628.4 1013.5,673.8 							"/>
						</g>
						<g>
							<g>
								<polygon class="st18" points="1036.5,703.5 1114.7,658.1 1114.5,727.9 1036.3,773.4 								"/>
							</g>
						</g>
						<g>
							<polygon class="st16" points="1036.5,695.9 1114.7,650.5 1114.9,650.6 1036.7,696 							"/>
						</g>
						<g>
							<g>
								<polygon class="st19" points="1036.7,696 1036.7,703.6 1036.5,703.5 962.5,660.8 962.3,660.7 962.3,653.1 962.5,653.2 
									1036.5,695.9 								"/>
							</g>
						</g>
						<g>
							<g>
								<polygon class="st19" points="1036.7,696 1114.9,650.6 1114.9,658.2 1036.7,703.6 								"/>
							</g>
						</g>
						<g>
							<polygon class="st17" points="1020.5,677.9 1098.7,632.5 1109.1,638.5 1030.9,683.9 							"/>
						</g>
						<g>
							<polygon class="st20" points="968.4,545.9 1046.6,500.4 1046.3,602.2 968.1,647.7 							"/>
						</g>
						<g>
							<polygon class="st14" points="978.8,551.9 1057,506.5 1056.7,608.2 978.5,653.7 							"/>
						</g>
						<g>
							<polygon class="st15" points="968.4,545.9 1046.6,500.4 1057,506.5 978.8,551.9 							"/>
						</g>
						<g>
							<g>
								<polygon class="st21" points="962.8,533.7 1041,488.2 1054.4,495.9 976.2,541.4 								"/>
							</g>
						</g>
						<g>
							<polygon class="st20" points="985.9,556 1064.1,510.5 1063.8,612.3 985.6,657.7 							"/>
						</g>
						<g>
							<polygon class="st15" points="985.9,556 1064.1,510.5 1074.5,516.5 996.3,562 							"/>
						</g>
						<g>
							<polygon class="st14" points="996.3,562 1074.5,516.5 1074.2,618.3 996,663.8 							"/>
						</g>
						<g>
							<polygon class="st13" points="978.9,524 1057.1,478.6 1057,488.2 978.8,533.6 							"/>
						</g>
						<g>
							<polygon class="st20" points="1003.3,566 1081.5,520.6 1081.2,622.4 1003,667.8 							"/>
						</g>
						<g>
							<polygon class="st12" points="978.8,533.6 1057,488.2 1066.3,493.5 988.1,539 							"/>
						</g>
						<g>
							<polygon class="st15" points="978.9,524 1057.1,478.6 1066.3,484 988.1,529.4 							"/>
						</g>
						<g>
							<polygon class="st14" points="988.1,529.4 1066.3,484 1066.3,493.5 988.1,539 							"/>
						</g>
						<g>
							<polygon class="st14" points="1013.7,572.1 1091.9,526.6 1091.7,628.4 1013.5,673.8 							"/>
						</g>
						<g>
							<polygon class="st15" points="1003.3,566 1081.5,520.6 1091.9,526.6 1013.7,572.1 							"/>
						</g>
						<g>
							<polygon class="st13" points="989.8,530.3 1068,484.9 1067.9,494.5 989.7,539.9 							"/>
						</g>
						<g>
							<polygon class="st12" points="989.7,539.9 1067.9,494.5 1077.2,499.8 999,545.3 							"/>
						</g>
						<g>
							<polygon class="st15" points="989.8,530.4 1068,484.9 1077.3,490.3 999.1,535.7 							"/>
						</g>
						<g>
							<polygon class="st14" points="999.1,535.7 1077.3,490.3 1077.2,499.8 999,545.3 							"/>
						</g>
						<g>
							<polygon class="st13" points="1000.7,536.7 1078.9,491.2 1078.9,500.8 1000.7,546.2 							"/>
						</g>
						<g>
							<polygon class="st12" points="1000.7,546.2 1078.9,500.8 1088.1,506.1 1009.9,551.6 							"/>
						</g>
						<g>
							<polygon class="st15" points="1020.8,576.1 1099,530.7 1109.4,536.7 1031.2,582.1 							"/>
						</g>
						<g>
							<polygon class="st14" points="1031.2,582.1 1109.4,536.7 1109.1,638.5 1030.9,683.9 							"/>
						</g>
						<g>
							<polygon class="st15" points="1000.7,536.7 1078.9,491.2 1088.2,496.6 1010,542 							"/>
						</g>
						<g>
							<polygon class="st14" points="1010,542 1088.2,496.6 1088.1,506.1 1009.9,551.6 							"/>
						</g>
						<g>
							<polygon class="st13" points="1011.6,543 1089.8,497.5 1089.8,507.1 1011.6,552.5 							"/>
						</g>
						<g>
							<polygon class="st12" points="1011.6,552.5 1089.8,507.1 1099.1,512.5 1020.9,557.9 							"/>
						</g>
						<g>
							<polygon class="st15" points="1011.6,543 1089.8,497.5 1099.1,502.9 1020.9,548.3 							"/>
						</g>
						<g>
							<polygon class="st14" points="1020.9,548.3 1099.1,502.9 1099.1,512.5 1020.9,557.9 							"/>
						</g>
						<g>
							<g>
								<path class="st5" d="M1023.5,568.7l13.4,7.7l-0.3,119.5l-74-42.7l0.3-119.5l13.4,7.7l0.1-26.2l47.3,27.3L1023.5,568.7z
									 M1011.6,543l0,9.6l9.3,5.4l0-9.6L1011.6,543 M978.9,524l0,9.6l9.3,5.4l0-9.6L978.9,524 M1000.7,536.7l0,9.6l9.3,5.4l0-9.6
									L1000.7,536.7 M999,545.3l0-9.6l-9.3-5.4l0,9.6L999,545.3"/>
							</g>
						</g>
						<g>
							<g>
								<polygon class="st18" points="1036.8,576.4 1115,530.9 1114.7,650.5 1036.5,695.9 								"/>
							</g>
						</g>
						<g>
							<g>
								<polygon class="st21" points="1023.5,568.7 1101.7,523.2 1115,530.9 1036.8,576.4 								"/>
							</g>
						</g>
						<g>
							<g>
								<polygon class="st21" points="976.3,515.2 1054.5,469.7 1101.7,497 1023.5,542.5 								"/>
							</g>
						</g>
						<g>
							<polygon class="st18" points="1023.5,542.5 1101.7,497 1101.7,523.2 1023.5,568.7 							"/>
						</g>
					</g>
				</g>
				<g>
					<g class="st0">
						<g>
							<polygon class="st22" points="1050.6,676.6 1047.7,675 1047.5,582.6 1050.3,584.2 							"/>
						</g>
						<g>
							<polygon class="st23" points="1050.3,584.2 1047.5,582.6 1056.2,577.6 1059,579.2 							"/>
						</g>
						<g>
							<g>
								<polygon class="st24" points="1059,579.2 1059.2,671.6 1050.6,676.6 1050.3,584.2 								"/>
							</g>
						</g>
					</g>
				</g>
				<g>
					<g class="st0">
						<g>
							<polygon class="st22" points="1066.2,668.9 1063.4,667.3 1063.1,574.9 1065.9,576.6 							"/>
						</g>
						<g>
							<polygon class="st23" points="1065.9,576.6 1063.1,574.9 1071.8,569.9 1074.6,571.6 							"/>
						</g>
						<g>
							<g>
								<polygon class="st24" points="1074.6,571.6 1074.8,663.9 1066.2,668.9 1065.9,576.6 								"/>
							</g>
						</g>
					</g>
				</g>
				<g>
					<g class="st0">
						<g>
							<polygon class="st22" points="1081.5,660.1 1078.7,658.4 1078.4,566 1081.2,567.7 							"/>
						</g>
						<g>
							<polygon class="st23" points="1081.2,567.7 1078.4,566 1087.1,561 1089.9,562.7 							"/>
						</g>
						<g>
							<g>
								<polygon class="st24" points="1089.9,562.7 1090.2,655.1 1081.5,660.1 1081.2,567.7 								"/>
							</g>
						</g>
					</g>
				</g>
				<g>
					<g class="st0">
						<g>
							<polygon class="st22" points="1098,651.2 1095.2,649.5 1095,557.2 1097.8,558.8 							"/>
						</g>
						<g>
							<polygon class="st23" points="1097.8,558.8 1095,557.2 1103.6,552.2 1106.4,553.8 							"/>
						</g>
						<g>
							<g>
								<polygon class="st24" points="1106.4,553.8 1106.7,646.2 1098,651.2 1097.8,558.8 								"/>
							</g>
						</g>
					</g>
				</g>
				<g>
					<g class="st0">
						<g>
							<polygon class="st22" points="1078.5,751.9 1074.6,749.7 1074.5,706.6 1078.4,708.8 							"/>
						</g>
						<g>
							<polygon class="st23" points="1078.4,708.8 1074.5,706.6 1092.9,696 1096.7,698.2 							"/>
						</g>
						<g>
							<g>
								<polygon class="st24" points="1096.7,698.2 1096.8,741.3 1078.5,751.9 1078.4,708.8 								"/>
							</g>
						</g>
					</g>
				</g>
				<g>
					<g class="st0">
						<g>
							<polygon class="st25" points="1023,581.2 1025.8,579.6 1025.5,679.9 1022.7,681.5 							"/>
						</g>
						<g>
							<polygon class="st23" points="1014.8,576.5 1017.6,574.8 1025.8,579.6 1023,581.2 							"/>
						</g>
						<g>
							<g>
								<polygon class="st12" points="1023,581.2 1022.7,681.5 1014.5,676.8 1014.8,576.5 								"/>
							</g>
						</g>
					</g>
				</g>
				<g>
					<g class="st0">
						<g>
							<polygon class="st25" points="1007.9,572.6 1010.8,570.9 1010.5,671.3 1007.7,672.9 							"/>
						</g>
						<g>
							<polygon class="st23" points="999.8,567.9 1002.6,566.2 1010.8,570.9 1007.9,572.6 							"/>
						</g>
						<g>
							<g>
								<polygon class="st12" points="1007.9,572.6 1007.7,672.9 999.5,668.2 999.8,567.9 								"/>
							</g>
						</g>
					</g>
				</g>
				<g>
					<g class="st0">
						<g>
							<polygon class="st25" points="989.8,562.1 992.6,560.4 992.4,660.8 989.5,662.4 							"/>
						</g>
						<g>
							<polygon class="st23" points="981.7,557.4 984.5,555.7 992.6,560.4 989.8,562.1 							"/>
						</g>
						<g>
							<g>
								<polygon class="st12" points="989.8,562.1 989.5,662.4 981.4,657.7 981.7,557.4 								"/>
							</g>
						</g>
					</g>
				</g>
				<g>
					<g class="st0">
						<g>
							<polygon class="st25" points="975.1,553.6 977.9,552 977.7,652.3 974.8,654 							"/>
						</g>
						<g>
							<polygon class="st23" points="967,548.9 969.8,547.3 977.9,552 975.1,553.6 							"/>
						</g>
						<g>
							<g>
								<polygon class="st12" points="975.1,553.6 974.8,654 966.7,649.3 967,548.9 								"/>
							</g>
						</g>
					</g>
				</g>
				<g>
					<path class="st18" d="M1071,459l-59.2,0l1.2,49.2c3.7,3.6,15,6.3,28.4,6.3s24.7-2.6,28.4-6.3c0,0,1.3-1.1,1.3-2.6
						C1071.1,505.2,1071,459,1071,459z"/>
					<ellipse class="st21" cx="1041.4" cy="459" rx="29.7" ry="8.9"/>
				</g>
			</g>
			<path class="st18" d="M1041.9,459.6L1041.9,459.6c-3.2,0-5.8-2.6-5.8-5.8v-54.1h11.6v54.1C1047.7,457,1045.1,459.6,1041.9,459.6z
				"/>
			<ellipse class="st21" cx="1041.9" cy="399.7" rx="5.8" ry="2.2"/>
		</g>
		<g>
			<g>
				<polygon class="st5" points="1740.3,1190.7 1631.1,1136.1 1631.1,882.5 1738.1,943.3 				"/>
				<polygon class="st18" points="1738.1,943.3 1826,895 1826.5,1141.7 1740.3,1190.7 				"/>
				<g>
					<polygon class="st21" points="1631.1,882.5 1724.3,836.2 1826,895 1738.1,943.3 					"/>
					<path class="st12" d="M1724.1,842l91.3,52.8l-77.4,42.6l-96-54.6L1724.1,842 M1724.3,836.2l-93.3,46.4l107,60.8L1826,895
						L1724.3,836.2L1724.3,836.2z"/>
				</g>
			</g>
			<g>
				<polygon class="st5" points="1737.7,923.3 1673.3,887.9 1673.3,735.3 1737.6,771.9 				"/>
				<polygon class="st18" points="1737.6,771.9 1790.5,742.8 1790.8,891.3 1737.7,922.2 				"/>
				<g>
					<polygon class="st21" points="1673.3,735.3 1729.4,707.5 1790.5,742.8 1737.6,771.9 					"/>
					<path class="st12" d="M1729.2,713.3l50.8,29.4l-42.3,23.3l-53.4-30.4L1729.2,713.3 M1729.4,707.5l-56.1,27.9l64.4,36.6
						l52.9-29.1L1729.4,707.5L1729.4,707.5z"/>
				</g>
			</g>
			<g>
				<g>
					<polygon class="st24" points="1758.4,963.9 1775.4,954.6 1775.4,984.2 1758.7,992.6 					"/>
					<path class="st26" d="M1757.6,994.5l-0.4-31.2l19.3-10.6v32.3L1757.6,994.5z M1759.5,964.6l0.3,26.2l14.4-7.3v-27L1759.5,964.6
						z"/>
				</g>
				<g>
					<polygon class="st24" points="1758.4,1002.2 1775.4,992.8 1775.4,1022.5 1758.7,1030.9 					"/>
					<path class="st26" d="M1757.6,1032.8l-0.4-31.2l19.3-10.6v32.3L1757.6,1032.8z M1759.5,1002.9l0.3,26.2l14.4-7.3v-27
						L1759.5,1002.9z"/>
				</g>
				<g>
					<polygon class="st24" points="1758.4,1040.5 1775.4,1031.1 1775.4,1060.7 1758.7,1069.2 					"/>
					<path class="st26" d="M1757.6,1071l-0.4-31.2l19.3-10.6v32.3L1757.6,1071z M1759.5,1041.1l0.3,26.2l14.4-7.3v-27L1759.5,1041.1
						z"/>
				</g>
			</g>
			<g>
				<g>
					<polygon class="st24" points="1794.4,949 1811.5,939.6 1811.5,969.2 1794.8,977.7 					"/>
					<path class="st26" d="M1793.6,979.5l-0.4-31.2l19.3-10.6v32.3L1793.6,979.5z M1795.6,949.6l0.3,26.2l14.4-7.3v-27L1795.6,949.6
						z"/>
				</g>
				<g>
					<polygon class="st24" points="1794.4,987.2 1811.5,977.9 1811.5,1007.5 1794.8,1015.9 					"/>
					<path class="st26" d="M1793.6,1017.8l-0.4-31.2l19.3-10.6v32.3L1793.6,1017.8z M1795.6,987.9l0.3,26.2l14.4-7.3v-27
						L1795.6,987.9z"/>
				</g>
				<g>
					<polygon class="st24" points="1794.4,1025.5 1811.5,1016.2 1811.5,1045.8 1794.8,1054.2 					"/>
					<path class="st26" d="M1793.6,1056.1l-0.4-31.2l19.3-10.6v32.3L1793.6,1056.1z M1795.6,1026.2l0.3,26.2l14.4-7.3v-27
						L1795.6,1026.2z"/>
				</g>
			</g>
			<g>
				<g>
					<polygon class="st24" points="1754.9,783.6 1771.9,774.2 1771.9,803.9 1755.2,812.3 					"/>
					<path class="st26" d="M1754.1,814.1l-0.4-31.2l19.3-10.6v32.3L1754.1,814.1z M1756,784.3l0.3,26.2l14.4-7.3v-27L1756,784.3z"/>
				</g>
				<g>
					<polygon class="st24" points="1754.9,821.9 1771.9,812.5 1771.9,842.1 1755.2,850.6 					"/>
					<path class="st26" d="M1754.1,852.4l-0.4-31.2l19.3-10.6v32.3L1754.1,852.4z M1756,822.5l0.3,26.2l14.4-7.3v-27L1756,822.5z"/>
				</g>
				<g>
					<polygon class="st24" points="1754.9,860.1 1771.9,850.8 1771.9,880.4 1755.2,888.8 					"/>
					<path class="st26" d="M1754.1,890.7l-0.4-31.2l19.3-10.6v32.3L1754.1,890.7z M1756,860.8l0.3,26.2l14.4-7.3v-27L1756,860.8z"/>
				</g>
			</g>
			<g>
				<polygon class="st12" points="1664.5,935.5 1704.8,959.5 1706.8,1055 1664.5,1033.8 				"/>
				<path class="st26" d="M1666.2,938.5l36.9,21.9l2,91.7l-38.8-19.4V938.5 M1664.5,935.5v98.3l42.3,21.2l-2-95.5L1664.5,935.5
					L1664.5,935.5z"/>
			</g>
			<g>
				<polygon class="st12" points="1684.3,762 1724.6,786 1726.6,881.5 1684.3,860.3 				"/>
				<path class="st26" d="M1686,765l36.9,21.9l2,91.7l-38.8-19.4V765 M1684.3,762v98.3l42.3,21.2l-2-95.5L1684.3,762L1684.3,762z"/>
			</g>
		</g>
		<g>
			<g>
				<polygon class="st5" points="1234.8,1539.5 1108.8,1476.5 1108.8,1183.8 1232.3,1254 				"/>
				<polygon class="st18" points="1232.3,1254 1333.8,1198.2 1334.4,1483 1234.8,1539.5 				"/>
				<g>
					<polygon class="st21" points="1108.8,1183.8 1216.4,1130.3 1333.8,1198.2 1232.3,1254 					"/>
					<path class="st26" d="M1216.4,1130.3l-107.7,53.5l123.5,70.2l101.5-55.8L1216.4,1130.3z M1232.4,1241.1l-96.3-54.7l-3.3-1.9
						l83.2-41.4l94.8,54.8l-4.4,2.4L1232.4,1241.1z"/>
				</g>
			</g>
			<polygon class="st24" points="1310.8,1197.9 1306.4,1200.3 1215.9,1146.6 1136.1,1186.3 1132.8,1184.4 1216,1143.1 			"/>
			<g>
				<polygon class="st21" points="904.4,1366.6 974.3,1408.6 1139.8,1318.1 1070.4,1278.1 				"/>
				<polygon class="st5" points="974.2,1408.3 974.6,1583.8 903.1,1543 904.2,1366.7 				"/>
				<polygon class="st18" points="1057,1361.3 1057.3,1537.8 974.6,1583.8 974.2,1408.3 				"/>
				<g>
					<polygon class="st24" points="913.6,1402.9 913.6,1421 973.9,1456.9 1047.8,1412.8 1047.8,1396.2 973.7,1439.1 					"/>
					<path class="st26" d="M973.9,1458.7l-61.9-36.9v-21.7l61.7,37.1l75.6-43.7v20.2L973.9,1458.7z M915.1,1420.1l58.8,35.1
						l72.3-43.2v-13.1l-72.5,42l-58.6-35.2V1420.1z"/>
				</g>
				<g>
					<polygon class="st24" points="913.6,1431.6 913.6,1449.7 973.9,1485.7 1047.8,1441.6 1047.8,1424.9 973.7,1467.8 					"/>
					<path class="st26" d="M973.9,1487.5l-61.9-36.9v-21.7l61.7,37.1l75.6-43.7v20.2L973.9,1487.5z M915.1,1448.8l58.8,35.1
						l72.3-43.2v-13.1l-72.5,42l-58.6-35.2V1448.8z"/>
				</g>
				<g>
					<polygon class="st24" points="913.6,1460.3 913.6,1478.4 973.9,1514.4 1047.8,1470.3 1047.8,1453.6 973.7,1496.5 					"/>
					<path class="st26" d="M973.9,1516.2l-61.9-36.9v-21.7l61.7,37.1l75.6-43.7v20.2L973.9,1516.2z M915.1,1477.5l58.8,35.1
						l72.3-43.2v-13.1l-72.5,42l-58.6-35.2V1477.5z"/>
				</g>
				<polygon class="st21" points="1056.1,1361.9 1126,1403.9 1208.8,1357.7 1139.3,1317.8 				"/>
				<polygon class="st5" points="1126,1403.9 1126,1580.5 1054.6,1539.3 1056.1,1361.9 				"/>
				<polygon class="st18" points="1208.8,1357.7 1208.8,1534.3 1126,1580.5 1126,1403.9 				"/>
				<g>
					<polygon class="st24" points="1200.1,1388.1 1200.1,1404.7 1188.6,1411.6 1177,1418.5 1175.6,1419.3 1137.3,1442.2 
						1126.2,1448.8 1122.2,1446.5 1120.7,1445.6 1120.7,1445.5 1098.1,1432.1 1065.9,1412.9 1065.9,1394.8 1105.3,1418.5 
						1105.3,1418.5 1126,1430.9 1132.5,1427.2 1186.3,1396.1 					"/>
					<path class="st26" d="M1126.2,1450.6l-61.9-36.9V1392l61.7,37.1l75.6-43.7v20.2L1126.2,1450.6z M1121.7,1444.3l4.6,2.7
						l72.3-43.2v-13.1l-72.5,42l-58.6-35.2v14.5L1121.7,1444.3z"/>
				</g>
				<g>
					<polygon class="st24" points="1200.1,1491.1 1200.1,1507.7 1196.7,1509.7 1183.8,1517.4 1178.4,1520.6 1165.4,1528.4 
						1126.2,1551.8 1065.9,1515.8 1065.9,1497.8 1080.6,1506.6 1082.7,1507.9 1089.1,1511.7 1126,1533.9 1126.2,1533.8 
						1160.6,1513.9 1173.1,1506.7 1177.2,1504.3 1193.3,1495 					"/>
					<path class="st26" d="M1126.2,1553.6l-0.8-0.5l-61.1-36.4V1495l61.7,37.1l75.6-43.7v20.2L1126.2,1553.6z M1067.4,1515
						l58.8,35.1l72.3-43.2v-13.1l-72.6,42l-58.6-35.2V1515z"/>
				</g>
				<g>
					<polygon class="st24" points="1200.1,1422.2 1200.1,1477.5 1190.4,1482.7 1171.3,1492.8 1168.4,1494.3 1156.3,1500.7 
						1126.2,1516.7 1085.1,1494.9 1079.9,1492.1 1075,1489.6 1066.5,1485 1066.5,1430.1 1069.2,1431.6 1070.4,1432.3 1104.4,1451.1 
						1126,1463 1141.3,1454.5 1179,1433.8 1182.6,1431.8 1191,1427.2 					"/>
					<path class="st26" d="M1126.2,1518.4L1065,1486v-58.5l61,33.7l75.6-41.6v58.9L1126.2,1518.4z M1068,1484.1l58.2,30.8l72.3-38.3
						v-51.8l-72.5,39.9l-58-32V1484.1z"/>
				</g>
				<g>
					<polygon class="st24" points="1028.4,1554.3 1028.4,1506.9 1009.4,1518.1 1009.4,1564.8 					"/>
					<path class="st26" d="M1025.4,1512.3v40.2l-12.9,7.1v-39.7L1025.4,1512.3 M1028.4,1506.9l-19,11.2v46.7l19-10.5V1506.9
						L1028.4,1506.9z"/>
				</g>
				<polygon class="st27" points="913.1,1367.9 912,1365.8 1070.2,1281.5 1201.7,1357.2 1199.3,1358.8 1070.1,1284.3 				"/>
				<path class="st28" d="M1070.3,1284l128.1,73.6l-72.3,40.3l-67.4-40.5l-2.6-1.5l-2.6,1.5l-79.3,45l-59.6-35.4L1070.3,1284
					 M1070.4,1278.1l-166.1,88.5l70,41.6l81.9-46.4l69.9,42l82.8-46.2L1070.4,1278.1L1070.4,1278.1z"/>
			</g>
			<g>
				<polygon class="st24" points="1268.4,1286.2 1298.8,1269.5 1298.8,1322.5 1269,1337.5 				"/>
				<path class="st26" d="M1267,1340.8l-0.6-55.8l34.5-19v57.7L1267,1340.8z M1270.5,1287.4l0.5,46.8l25.7-13V1273L1270.5,1287.4z"
					/>
			</g>
			<g>
				<polygon class="st24" points="1268.4,1354.6 1298.8,1337.9 1298.8,1390.8 1269,1405.9 				"/>
				<path class="st26" d="M1267,1409.2l-0.6-55.8l34.5-19v57.7L1267,1409.2z M1270.5,1355.8l0.5,46.8l25.7-13v-48.2L1270.5,1355.8z"
					/>
			</g>
			<g>
				<polygon class="st24" points="1268.4,1423 1298.8,1406.3 1298.8,1459.2 1269,1474.3 				"/>
				<path class="st26" d="M1267,1477.6l-0.6-55.8l34.5-19v57.7L1267,1477.6z M1270.5,1424.2l0.5,46.8l25.7-13v-48.2L1270.5,1424.2z"
					/>
			</g>
		</g>
		<g>
			<g>
				<path class="st5" d="M1622.4,969.5l-34.8,0.3c-15.4-7.1-34.8-11.4-55.9-11.4c-22.1,0-42.3,4.7-58,12.4l-31.8,0.3l-0.6,43.4
					c2.5,28,42,50.3,90.4,50.3c47.9,0,87.1-21.9,90.3-49.5L1622.4,969.5z"/>
				<ellipse class="st18" cx="1532.2" cy="968.8" rx="90.5" ry="53.2"/>
			</g>
			<g>
				<path class="st5" d="M1622.4,912.1l-34.8,0.3c-15.4-7.1-34.8-11.4-55.9-11.4c-22.1,0-42.3,4.7-58,12.4l-31.8,0.3l-0.6,43.4
					c2.5,28,42,50.3,90.4,50.3c47.9,0,87.1-21.9,90.3-49.5L1622.4,912.1z"/>
				<ellipse class="st18" cx="1532.2" cy="911.4" rx="90.5" ry="53.2"/>
			</g>
			<g>
				<path class="st5" d="M1622.4,854.7l-34.8,0.3c-15.4-7.1-34.8-11.4-55.9-11.4c-22.1,0-42.3,4.7-58,12.4l-31.8,0.3l-0.6,43.4
					c2.5,28,42,50.3,90.4,50.3c47.9,0,87.1-21.9,90.3-49.5L1622.4,854.7z"/>
				<ellipse class="st18" cx="1532.2" cy="854.1" rx="90.5" ry="53.2"/>
			</g>
			<g>
				<path class="st5" d="M1622.4,797.4l-34.8,0.3c-15.4-7.1-34.8-11.4-55.9-11.4c-22.1,0-42.3,4.7-58,12.4l-31.8,0.3l-0.6,43.4
					c2.5,28,42,50.3,90.4,50.3c47.9,0,87.1-21.9,90.3-49.5L1622.4,797.4z"/>
				<ellipse class="st18" cx="1532.2" cy="796.7" rx="90.5" ry="53.2"/>
			</g>
			<g>
				<path class="st5" d="M1622.4,740l-34.8,0.3c-15.4-7.1-34.8-11.4-55.9-11.4c-22.1,0-42.3,4.7-58,12.4l-31.8,0.3l-0.6,43.4
					c2.5,28,42,50.3,90.4,50.3c47.9,0,87.1-21.9,90.3-49.5L1622.4,740z"/>
				<ellipse class="st18" cx="1532.2" cy="739.3" rx="90.5" ry="53.2"/>
			</g>
			<g>
				<path class="st5" d="M1622.4,682.6l-34.8,0.3c-15.4-7.1-34.8-11.4-55.9-11.4c-22.1,0-42.3,4.7-58,12.4l-31.8,0.3l-1.2,43.4
					l0.6,0c2.5,28,42,50.3,90.4,50.3c47.9,0,87.1-21.9,90.3-49.5l0.5,0V682.6z"/>
				<ellipse class="st18" cx="1532.2" cy="682" rx="90.5" ry="53.2"/>
			</g>
			<g>
				<path class="st5" d="M1622.4,625.2l-34.8,0.3c-15.4-7.1-34.8-11.4-55.9-11.4c-22.1,0-42.3,4.7-58,12.4l-31.8,0.3l-0.6,43.4
					c2.5,28,42,50.3,90.4,50.3c47.9,0,87.1-21.9,90.3-49.5L1622.4,625.2z"/>
				<ellipse class="st18" cx="1532.2" cy="624.6" rx="90.5" ry="53.2"/>
			</g>
			<g>
				<path class="st5" d="M1622.4,567.9l-34.8,0.3c-15.4-7.1-34.8-11.4-55.9-11.4c-22.1,0-42.3,4.7-58,12.4l-31.8,0.3l-0.6,43.4
					c2.5,28,42,50.3,90.4,50.3c47.9,0,87.1-21.9,90.3-49.5L1622.4,567.9z"/>
				<ellipse class="st18" cx="1532.2" cy="567.2" rx="90.5" ry="53.2"/>
			</g>
			<g>
				<path class="st5" d="M1622.4,510.5l-34.8,0.3c-15.4-7.1-34.8-11.4-55.9-11.4c-22.1,0-42.3,4.7-58,12.4l-31.8,0.3l-0.6,43.4
					c2.5,28,42,50.3,90.4,50.3c47.9,0,87.1-21.9,90.3-49.5L1622.4,510.5z"/>
				<ellipse class="st18" cx="1532.2" cy="509.9" rx="90.5" ry="53.2"/>
			</g>
			<g>
				<ellipse class="st8" cx="1532" cy="509.3" rx="52.2" ry="31.3"/>
				<polygon class="st8" points="1584.3,499.1 1584,510.9 1504.1,523.7 1479.8,509.3 1479.8,499.4 1546.6,498.4 				"/>
				<ellipse class="st6" cx="1532" cy="499.4" rx="52.2" ry="31.3"/>
			</g>
		</g>
		<g>
			<g>
				<polygon class="st5" points="566.1,1002.8 472.4,956 472.4,738.3 564.2,790.5 				"/>
				<polygon class="st18" points="564.2,790.5 639.7,749 640.1,960.8 566.1,1002.8 				"/>
				<g>
					<polygon class="st21" points="472.4,738.3 552.5,698.6 639.7,749 564.2,790.5 					"/>
					<path class="st8" d="M552.3,704.9l76,44l-64,35.2l-79.9-45.4L552.3,704.9 M552.5,698.6l-80,39.8l91.8,52.2l75.5-41.5
						L552.5,698.6L552.5,698.6z"/>
				</g>
			</g>
			<polygon class="st18" points="484.9,738.7 552.2,705.2 627.8,748.9 621.9,752.2 552.1,710.7 490,741.6 			"/>
			<g>
				<g>
					<g>
						<polygon class="st24" points="607.6,867.5 636.2,853.4 635.9,783.2 607.6,798.8 						"/>
						<path class="st26" d="M606.5,869.1v-71l30.4-16.7l0.3,72.6L606.5,869.1z M608.6,799.4v66.5l26.6-13.1l-0.3-67.9L608.6,799.4z"
							/>
					</g>
					<g>
						<polygon class="st24" points="601.7,802 573.6,817.4 574.1,884 601.7,870.4 						"/>
						<path class="st26" d="M573.1,885.6l-0.5-68.8l30.2-16.6V871L573.1,885.6z M574.6,818l0.5,64.3l25.6-12.6v-66L574.6,818z"/>
					</g>
				</g>
			</g>
			<g>
				<g>
					<polygon class="st12" points="514.9,782.3 487,766.4 486.7,858.8 514.9,871.4 					"/>
					<path class="st26" d="M515.9,873l-30.2-13.5l0.3-94.8l29.9,17V873z M487.7,858.2l26.1,11.7v-86.9L488,768.2L487.7,858.2z"/>
				</g>
				<g>
					<polygon class="st12" points="519.4,784.9 519.4,873.4 549.6,886.9 549.6,802 					"/>
					<path class="st26" d="M550.6,888.4l-32.2-14.4v-90.9l32.2,18.3V888.4z M520.4,872.7l28.1,12.5v-82.7l-28.1-16V872.7z"/>
				</g>
			</g>
		</g>
		<g>
			<polygon class="st5" points="278,1025.2 274.3,1189.8 164.1,1129.5 166.6,954.6 242.1,931.1 279.2,968.3 			"/>
			<polygon class="st18" points="455,920 457.5,1083.4 274.3,1189.8 278,1025.2 			"/>
			<polygon class="st24" points="302.3,1105.8 333.4,1088.4 333,1125.4 301.7,1143 			"/>
			<polygon class="st24" points="353.1,1077.2 384.2,1059.5 383.4,1126.7 352.5,1144.3 			"/>
			<polygon class="st24" points="399.4,1050.8 430.6,1033 429.7,1070.2 398.5,1088 			"/>
			<polygon class="st24" points="302.3,1048 333.4,1030.6 333,1067.6 301.7,1085.2 			"/>
			<polygon class="st24" points="353.1,1019.3 384.2,1001.7 383.4,1038.8 352.5,1056.4 			"/>
			<polygon class="st24" points="399.4,993 430.6,975.2 429.7,1012.4 398.5,1030.2 			"/>
			<polygon class="st18" points="179.3,1060.2 211.8,1077 211.7,1117.4 179.3,1100.4 			"/>
			<polygon class="st18" points="223.5,1083.1 255.5,1099.5 254.8,1137.3 223.2,1121 			"/>
			<polygon class="st18" points="179.3,1002.4 211.8,1019.2 211.7,1059.6 179.3,1042.6 			"/>
			<polygon class="st18" points="223.5,1025.2 255.5,1041.7 254.8,1079.5 223.2,1063.1 			"/>
			<polygon class="st8" points="218.6,947.2 278,1025.2 462.4,918.7 399.3,843.3 			"/>
			<polygon class="st6" points="158,953.4 218.6,947.2 399.3,843.3 333.7,850.7 			"/>
		</g>
		<g>
			<polygon class="st5" points="1112.1,744.8 1108.4,909.5 998.3,849.2 1000.7,674.3 1076.2,650.8 1113.4,687.9 			"/>
			<polygon class="st18" points="1289.1,639.6 1291.6,803 1108.4,909.5 1112.1,744.8 			"/>
			<polygon class="st24" points="1136.4,825.5 1167.5,808.1 1167.1,845.1 1135.9,862.7 			"/>
			<polygon class="st24" points="1187.2,796.8 1218.4,779.1 1217.5,846.4 1186.6,864 			"/>
			<polygon class="st24" points="1233.5,770.5 1264.7,752.7 1263.8,789.9 1232.7,807.7 			"/>
			<polygon class="st24" points="1136.4,767.7 1167.5,750.3 1167.1,787.3 1135.9,804.8 			"/>
			<polygon class="st24" points="1187.2,739 1218.4,721.3 1217.5,758.5 1186.6,776.1 			"/>
			<polygon class="st24" points="1233.5,712.6 1264.7,694.8 1263.8,732 1232.7,749.8 			"/>
			<polygon class="st18" points="1013.4,779.8 1045.9,796.6 1045.8,837.1 1013.4,820.1 			"/>
			<polygon class="st18" points="1057.7,802.7 1089.6,819.2 1089,857 1057.3,840.6 			"/>
			<polygon class="st18" points="1013.4,722 1045.9,738.8 1045.8,779.2 1013.4,762.2 			"/>
			<polygon class="st18" points="1057.7,744.9 1089.6,761.4 1089,799.1 1057.3,782.8 			"/>
			<polygon class="st8" points="1052.7,666.9 1112.1,744.8 1296.6,638.4 1233.4,562.9 			"/>
			<polygon class="st6" points="992.1,673.1 1052.7,666.9 1233.4,562.9 1167.8,570.3 			"/>
		</g>
		<polygon class="st29" points="352.5,1144.3 398.1,1175.5 423.4,1160.1 383.4,1126.7 		"/>
		<g>
			<g>
				<path class="st29" d="M385.6,1201.6l-0.2,27c0.1,8.8,3.9,17.2,10.4,23.2c14.9,13.6,46.2,34.2,95.7,29.1
					c36.3-3.8,57.2-12.7,69-20.7c9.1-6.2,14.7-16.3,15.3-27.3l1.8-31.6L385.6,1201.6z"/>
				<g>
					<ellipse class="st21" cx="481.6" cy="1204.6" rx="96.1" ry="58.5"/>
					<path class="st5" d="M481.6,1152.3c24.6,0,47.6,5.8,64.7,16.2c16.2,9.9,25.2,22.7,25.2,36.1c0,13.4-8.9,26.2-25.2,36.1
						c-17.2,10.5-40.2,16.2-64.7,16.2s-47.6-5.8-64.7-16.2c-16.2-9.9-25.2-22.7-25.2-36.1s8.9-26.2,25.2-36.1
						C434.1,1158.1,457.1,1152.3,481.6,1152.3 M481.6,1146.2c-53.1,0-96.1,26.2-96.1,58.5s43,58.5,96.1,58.5s96.1-26.2,96.1-58.5
						S534.7,1146.2,481.6,1146.2L481.6,1146.2z"/>
				</g>
			</g>
			<path class="st29" d="M454.8,1152.2c0,0,9.9,18.1,12.7,33.1c1.7,9,9.4,15.7,18.6,15.7h0.6c10.1,0,18.4-8,18.8-18
				c0.4-10.1,2.2-22.6,7.9-33L454.8,1152.2z"/>
			<ellipse class="st5" cx="483.4" cy="1144.6" rx="33.3" ry="16.3"/>
			<ellipse class="st21" cx="483.4" cy="1143.9" rx="29.9" ry="13.9"/>
		</g>
		<g>
			<ellipse class="st30" cx="1440.6" cy="1389.7" rx="29.4" ry="13.3"/>
			<g>
				<path class="st31" d="M1444,1390.7h-7.5c-2.5,0-4.6-2-4.6-4.6v-119.6h16.6v119.6C1448.5,1388.7,1446.5,1390.7,1444,1390.7z"/>
				<circle class="st32" cx="1440.3" cy="1243" r="74.1"/>
			</g>
		</g>
		<g>
			<ellipse class="st30" cx="1045.2" cy="1227.5" rx="18.6" ry="8.4"/>
			<g>
				<path class="st31" d="M1046.3,1228.2h-2.6c-2.2,0-4-1.8-4-4v-74.7h10.5v74.7C1050.3,1226.4,1048.5,1228.2,1046.3,1228.2z"/>
				<circle class="st32" cx="1045.1" cy="1134.7" r="46.9"/>
			</g>
		</g>
		<g>
			<ellipse class="st30" cx="1181.2" cy="1135.5" rx="18.6" ry="8.4"/>
			<g>
				<path class="st31" d="M1182.3,1136.1h-2.6c-2.2,0-4-1.8-4-4v-74.7h10.5v74.7C1186.3,1134.4,1184.5,1136.1,1182.3,1136.1z"/>
				<circle class="st32" cx="1181.1" cy="1042.6" r="46.9"/>
			</g>
		</g>
		<g>
			<ellipse class="st30" cx="859.5" cy="1431.9" rx="18.6" ry="8.4"/>
			<g>
				<path class="st31" d="M860.6,1432.6H858c-2.2,0-4-1.8-4-4v-74.7h10.5v74.7C864.6,1430.8,862.8,1432.6,860.6,1432.6z"/>
				<circle class="st32" cx="859.4" cy="1339.1" r="46.9"/>
			</g>
		</g>
		<g>
			<ellipse class="st30" cx="1316.8" cy="793.1" rx="18.6" ry="8.4"/>
			<g>
				<path class="st31" d="M1317.9,793.8h-2.6c-2.2,0-4-1.8-4-4v-74.7h10.5v74.7C1321.8,792,1320,793.8,1317.9,793.8z"/>
				<circle class="st32" cx="1316.7" cy="700.3" r="46.9"/>
			</g>
		</g>
		<g>
			<ellipse class="st30" cx="1882.1" cy="1135.5" rx="18.6" ry="8.4"/>
			<g>
				<path class="st31" d="M1883.1,1136.1h-2.6c-2.2,0-4-1.8-4-4v-74.7h10.5v74.7C1887.1,1134.4,1885.3,1136.1,1883.1,1136.1z"/>
				<circle class="st32" cx="1881.9" cy="1042.6" r="46.9"/>
			</g>
		</g>
		<g>
			<ellipse class="st30" cx="708.4" cy="950.9" rx="16.4" ry="7.4"/>
			<g>
				<path class="st31" d="M708.3,951.4h-0.2c-2.5,0-4.6-2-4.6-4.6v-64.7h9.3v64.7C712.9,949.4,710.8,951.4,708.3,951.4z"/>
				<circle class="st32" cx="708.3" cy="869.1" r="41.3"/>
			</g>
		</g>
		<g>
			<ellipse class="st30" cx="873.9" cy="1047.4" rx="16.4" ry="7.4"/>
			<g>
				<path class="st31" d="M873.7,1047.9h-0.2c-2.5,0-4.6-2-4.6-4.6v-64.7h9.3v64.7C878.3,1045.9,876.3,1047.9,873.7,1047.9z"/>
				<circle class="st32" cx="873.7" cy="965.6" r="41.3"/>
			</g>
		</g>
		<g>
			<ellipse class="st30" cx="705.4" cy="1158.4" rx="16.4" ry="7.4"/>
			<g>
				<path class="st31" d="M705.2,1159h-0.2c-2.5,0-4.6-2-4.6-4.6v-64.7h9.3v64.7C709.8,1157,707.8,1159,705.2,1159z"/>
				<circle class="st32" cx="705.2" cy="1076.6" r="41.3"/>
			</g>
		</g>
		<g>
			<ellipse class="st30" cx="324.7" cy="1217.4" rx="16.4" ry="7.4"/>
			<g>
				<path class="st31" d="M324.6,1218h-0.2c-2.5,0-4.6-2-4.6-4.6v-64.7h9.3v64.7C329.1,1216,327.1,1218,324.6,1218z"/>
				<circle class="st32" cx="324.6" cy="1135.6" r="41.3"/>
			</g>
		</g>
		<polygon class="st5" points="1186.6,864 1219.2,885.9 1253.4,866.3 1217.5,846.4 		"/>
		<path class="st5" d="M1029,989.2l-10.3-6.1l0.5-0.9l10.3,6.1L1029,989.2z M1008.3,977l-10.3-6.1l0.5-0.9l10.3,6.1L1008.3,977z
			 M987.7,964.8l-10.3-6.1l0.5-0.9l10.3,6.1L987.7,964.8z M967,952.5l-10.3-6.1l0.5-0.9l10.3,6.1L967,952.5z M946.4,940.3l-10.3-6.1
			l0.5-0.9l10.3,6.1L946.4,940.3z M925.7,928.1l-10.3-6.1l0.5-0.9l10.3,6.1L925.7,928.1z M905,915.9l-10.3-6.1l0.5-0.9l10.3,6.1
			L905,915.9z M884.4,903.7l-10.3-6.1l0.5-0.9l10.3,6.1L884.4,903.7z M863.7,891.5l-10.3-6.1l0.5-0.9l10.3,6.1L863.7,891.5z
			 M843.1,879.2l-10.3-6.1l0.5-0.9l10.3,6.1L843.1,879.2z M822.4,867l-10.3-6.1l0.5-0.9l10.3,6.1L822.4,867z M801.8,854.8l-10.3-6.1
			l0.5-0.9l10.3,6.1L801.8,854.8z M781.1,842.6l-10.3-6.1l0.5-0.9l10.3,6.1L781.1,842.6z M760.4,830.4l-10.3-6.1l0.5-0.9l10.3,6.1
			L760.4,830.4z M739.8,818.1l-10.3-6.1l0.5-0.9l10.3,6.1L739.8,818.1z M719.1,805.9l-10.3-6.1l0.5-0.9l10.3,6.1L719.1,805.9z"/>
		<path class="st5" d="M566.9,1406.4l-0.6-0.8l9.7-7l0.6,0.8L566.9,1406.4z M586.4,1392.4l-0.6-0.8l9.7-7l0.6,0.8L586.4,1392.4z
			 M605.9,1378.4l-0.6-0.8l9.7-7l0.6,0.8L605.9,1378.4z M625.4,1364.4l-0.6-0.8l9.7-7l0.6,0.8L625.4,1364.4z M644.9,1350.4l-0.6-0.8
			l9.7-7l0.6,0.8L644.9,1350.4z M664.3,1336.4l-0.6-0.8l9.7-7l0.6,0.8L664.3,1336.4z M683.8,1322.4l-0.6-0.8l9.7-7l0.6,0.8
			L683.8,1322.4z M703.3,1308.4l-0.6-0.8l9.7-7l0.6,0.8L703.3,1308.4z M722.8,1294.4l-0.6-0.8l9.7-7l0.6,0.8L722.8,1294.4z
			 M742.3,1280.4l-0.6-0.8l9.7-7l0.6,0.8L742.3,1280.4z M761.8,1266.4l-0.6-0.8l9.7-7l0.6,0.8L761.8,1266.4z M781.3,1252.4l-0.6-0.8
			l9.7-7l0.6,0.8L781.3,1252.4z M800.8,1238.4l-0.6-0.8l9.7-7l0.6,0.8L800.8,1238.4z M820.3,1224.4l-0.6-0.8l9.7-7l0.6,0.8
			L820.3,1224.4z M839.8,1210.4l-0.6-0.8l9.7-7l0.6,0.8L839.8,1210.4z M859.3,1196.4l-0.6-0.8l9.7-7l0.6,0.8L859.3,1196.4z
			 M878.8,1182.4l-0.6-0.8l9.7-7l0.6,0.8L878.8,1182.4z M898.2,1168.4l-0.6-0.8l9.7-7l0.6,0.8L898.2,1168.4z M917.7,1154.4l-0.6-0.8
			l9.7-7l0.6,0.8L917.7,1154.4z M937.2,1140.4l-0.6-0.8l9.7-7l0.6,0.8L937.2,1140.4z M956.7,1126.4l-0.6-0.8l9.7-7l0.6,0.8
			L956.7,1126.4z M976.2,1112.4l-0.6-0.8l9.7-7l0.6,0.8L976.2,1112.4z M995.7,1098.4l-0.6-0.8l9.7-7l0.6,0.8L995.7,1098.4z
			 M1015.2,1084.4l-0.6-0.8l9.7-7l0.6,0.8L1015.2,1084.4z M1034.7,1070.4l-0.6-0.8l9.7-7l0.6,0.8L1034.7,1070.4z"/>
		<g>
			<ellipse class="st30" cx="701" cy="1452.6" rx="18.6" ry="8.4"/>
			<g>
				<path class="st31" d="M702,1453.3h-2.6c-2.2,0-4-1.8-4-4v-74.7H706v74.7C706,1451.5,704.2,1453.3,702,1453.3z"/>
				<circle class="st32" cx="700.8" cy="1359.7" r="46.9"/>
			</g>
		</g>
		<g>
			<path class="st33" d="M537.1,922.5l83.8,177.2l92.5-172.9c35.2-65.8-12.5-145.4-87.1-145.4h0C553.9,781.5,506.1,857,537.1,922.5z
				"/>
			<path class="st34" d="M532,909l83.8,177.2l92.5-172.9c35.2-65.8-12.5-145.4-87.1-145.4h0C548.8,768,501,843.5,532,909z"/>
			<circle class="st26" cx="621.3" cy="869.1" r="64.6"/>
		</g>
		<path class="st5" d="M1661.2,1293.7l-7.8-5l0.5-0.8l7.8,5L1661.2,1293.7z M1643.3,1282.3l-10.1-6.5l0.5-0.8l10.1,6.5
			L1643.3,1282.3z M1623,1269.4l-10.1-6.5l0.5-0.8l10.1,6.5L1623,1269.4z M1602.8,1256.4l-10.1-6.5l0.5-0.8l10.1,6.5L1602.8,1256.4z
			 M1582.5,1243.5l-10.1-6.5l0.5-0.8l10.1,6.5L1582.5,1243.5z M1562.3,1230.6l-10.1-6.5l0.5-0.8l10.1,6.5L1562.3,1230.6z
			 M1542.1,1217.7l-10.1-6.5l0.5-0.8l10.1,6.5L1542.1,1217.7z M1521.8,1204.8l-10.1-6.5l0.5-0.8l10.1,6.5L1521.8,1204.8z
			 M1501.6,1191.9l-10.1-6.5l0.5-0.8l10.1,6.5L1501.6,1191.9z M1481.4,1179l-10.1-6.5l0.5-0.8l10.1,6.5L1481.4,1179z M1461.1,1166.1
			l-10.1-6.5l0.5-0.8l10.1,6.5L1461.1,1166.1z M1440.9,1153.2l-10.1-6.5l0.5-0.8l10.1,6.5L1440.9,1153.2z M1420.7,1140.3l-10.1-6.5
			l0.5-0.8l10.1,6.5L1420.7,1140.3z M1400.4,1127.4l-10.1-6.5l0.5-0.8l10.1,6.5L1400.4,1127.4z M1380.2,1114.5l-10.1-6.5l0.5-0.8
			l10.1,6.5L1380.2,1114.5z M1360,1101.6l-10.1-6.5l0.5-0.8l10.1,6.5L1360,1101.6z M1339.7,1088.7l-10.1-6.5l0.5-0.8l10.1,6.5
			L1339.7,1088.7z M1319.5,1075.7l-10.1-6.5l0.5-0.8l10.1,6.5L1319.5,1075.7z M1299.3,1062.8l-10.1-6.5l0.5-0.8l10.1,6.5
			L1299.3,1062.8z M1279,1049.9l-10.1-6.5l0.5-0.8l10.1,6.5L1279,1049.9z M1258.8,1037l-10.1-6.5l0.5-0.8l10.1,6.5L1258.8,1037z"/>
		<path class="st5" d="M1227.4,955.9l-0.5-0.9l4.5-2.8l0.5,0.9L1227.4,955.9z M1242.1,946.8l-0.5-0.9l10.2-6.3l0.5,0.9L1242.1,946.8
			z M1262.5,934.2l-0.5-0.9l10.2-6.3l0.5,0.9L1262.5,934.2z M1283,921.7l-0.5-0.9l10.2-6.3l0.5,0.9L1283,921.7z M1303.4,909.1
			l-0.5-0.9l10.2-6.3l0.5,0.9L1303.4,909.1z M1323.9,896.5l-0.5-0.9l10.2-6.3l0.5,0.9L1323.9,896.5z M1344.3,883.9l-0.5-0.9
			l10.2-6.3l0.5,0.9L1344.3,883.9z M1364.7,871.3l-0.5-0.9l10.2-6.3l0.5,0.9L1364.7,871.3z M1385.2,858.7l-0.5-0.9l10.2-6.3l0.5,0.9
			L1385.2,858.7z M1405.6,846.1l-0.5-0.9l10.2-6.3l0.5,0.9L1405.6,846.1z"/>
		<g>
			<ellipse class="st30" cx="1374.2" cy="995.3" rx="18.6" ry="8.4"/>
			<g>
				<path class="st31" d="M1375.3,996h-2.6c-2.2,0-4-1.8-4-4v-74.7h10.5V992C1379.3,994.2,1377.5,996,1375.3,996z"/>
				<circle class="st32" cx="1374.1" cy="902.5" r="46.9"/>
			</g>
		</g>
	</g>
	<path class="st5" d="M557.3,484.4c-10.6,0-20.8,1-30.3,2.7c-11.7-13.2-27.5-22.7-45.5-26.3c-10.1-12.2-25.4-20-42.5-20
		c-3.9,0-7.8,0.4-11.5,1.2c-13.7-26.6-41.5-44.9-73.5-44.9c-45.7,0-82.7,37-82.7,82.7c0,8.9,1.4,17.5,4,25.5
		c-22.3,7.1-38.5,27.9-38.5,52.6c0,30.5,24.7,55.1,55.1,55.1c10.7,0,20.6-3,29.1-8.3c14.4,12.3,33.2,19.8,53.6,19.8
		c16.7,0,32.2-5,45.2-13.4c13,8.5,28.5,13.4,45.2,13.4c26.6,0,50.2-12.5,65.3-32c8.6,1.4,17.6,2.1,27,2.1
		c53.9,0,97.7-24.7,97.7-55.1C655,509.1,611.2,484.4,557.3,484.4z"/>
	<path class="st5" d="M871.1,301.1c-5.5,0-10.7,0.5-15.6,1.4c-6-6.8-14.2-11.7-23.5-13.6c-5.2-6.3-13.1-10.3-22-10.3
		c-2,0-4,0.2-5.9,0.6c-7.1-13.8-21.4-23.2-38-23.2c-23.6,0-42.7,19.1-42.7,42.7c0,4.6,0.7,9,2.1,13.2c-11.5,3.6-19.9,14.4-19.9,27.2
		c0,15.7,12.8,28.5,28.5,28.5c5.5,0,10.7-1.6,15-4.3c7.5,6.4,17.1,10.2,27.7,10.2c8.6,0,16.6-2.6,23.3-6.9
		c6.7,4.4,14.7,6.9,23.3,6.9c13.7,0,25.9-6.5,33.7-16.5c4.4,0.7,9.1,1.1,13.9,1.1c27.9,0,50.4-12.8,50.4-28.5
		C921.5,313.9,898.9,301.1,871.1,301.1z"/>
	<path class="st5" d="M1327,426c-4.5,0-8.9,0.4-13,1.2c-5-5.7-11.8-9.7-19.5-11.3c-4.3-5.2-10.9-8.6-18.2-8.6
		c-1.7,0-3.3,0.2-4.9,0.5c-5.9-11.4-17.8-19.2-31.5-19.2c-19.6,0-35.5,15.9-35.5,35.5c0,3.8,0.6,7.5,1.7,10.9
		c-9.6,3-16.5,12-16.5,22.5c0,13.1,10.6,23.6,23.6,23.6c4.6,0,8.8-1.3,12.5-3.6c6.2,5.3,14.2,8.5,23,8.5c7.1,0,13.8-2.1,19.4-5.8
		c5.6,3.6,12.2,5.8,19.4,5.8c11.4,0,21.5-5.4,28-13.7c3.7,0.6,7.5,0.9,11.6,0.9c23.1,0,41.9-10.6,41.9-23.6
		C1368.8,436.6,1350.1,426,1327,426z"/>
</g>
</svg>
