<svg width="57" height="63" viewBox="0 0 57 63" fill="none" xmlns="http://www.w3.org/2000/svg">
<path opacity="0.15" d="M12.2717 60.5729C12.2717 61.1327 13.9766 61.6696 17.0115 62.0654C20.0463 62.4613 24.1625 62.6837 28.4544 62.6837C32.7464 62.6837 36.8625 62.4613 39.8974 62.0654C42.9322 61.6696 44.6372 61.1327 44.6372 60.5729C44.6372 60.013 42.9322 59.4762 39.8974 59.0803C36.8625 58.6845 32.7464 58.4621 28.4544 58.4621C24.1625 58.4621 20.0463 58.6845 17.0115 59.0803C13.9766 59.4762 12.2717 60.013 12.2717 60.5729Z" fill="#45413C"/>
<path d="M0.774841 28.6717C0.774841 36.0128 3.69107 43.0532 8.882 48.2441C14.0729 53.435 21.1133 56.3513 28.4544 56.3513C35.7955 56.3513 42.8359 53.435 48.0268 48.2441C53.2177 43.0532 56.134 36.0128 56.134 28.6717C56.134 21.3306 53.2177 14.2902 48.0268 9.0993C42.8359 3.90837 35.7955 0.992142 28.4544 0.992142C21.1133 0.992142 14.0729 3.90837 8.882 9.0993C3.69107 14.2902 0.774841 21.3306 0.774841 28.6717Z" fill="#00B8F0"/>
<path d="M52.8552 15.6129C54.0108 19.4231 54.2581 23.4509 53.5773 27.3737C52.8964 31.2966 51.3064 35.0056 48.9346 38.2035C46.5627 41.4014 43.4749 43.9995 39.9185 45.7896C36.3621 47.5796 32.4359 48.512 28.4544 48.512C24.4729 48.512 20.5467 47.5796 16.9903 45.7896C13.4339 43.9995 10.3461 41.4014 7.97424 38.2035C5.60238 35.0056 4.01237 31.2966 3.33155 27.3737C2.65072 23.4509 2.89801 19.4231 4.05361 15.6129C1.79515 19.8301 0.668234 24.5607 0.782779 29.3432C0.897324 34.1257 2.24942 38.7969 4.70719 42.9011C7.16496 47.0054 10.6445 50.4026 14.8064 52.7614C18.9683 55.1201 23.6705 56.36 28.4544 56.36C33.2383 56.36 37.9405 55.1201 42.1024 52.7614C46.2643 50.4026 49.7439 47.0054 52.2016 42.9011C54.6594 38.7969 56.0115 34.1257 56.126 29.3432C56.2406 24.5607 55.1137 19.8301 52.8552 15.6129Z" fill="#009FD9"/>
<path d="M0.774841 28.6717C0.774841 36.0128 3.69107 43.0532 8.882 48.2441C14.0729 53.435 21.1133 56.3513 28.4544 56.3513C35.7955 56.3513 42.8359 53.435 48.0268 48.2441C53.2177 43.0532 56.134 36.0128 56.134 28.6717C56.134 21.3306 53.2177 14.2902 48.0268 9.0993C42.8359 3.90837 35.7955 0.992142 28.4544 0.992142C21.1133 0.992142 14.0729 3.90837 8.882 9.0993C3.69107 14.2902 0.774841 21.3306 0.774841 28.6717V28.6717Z" stroke="#45413C" stroke-width="1.4072" stroke-linecap="round" stroke-linejoin="round"/>
<path d="M40.6266 3.84875L35.2652 4.80565C35.1816 4.82115 35.1008 4.84964 35.026 4.89008L28.6232 8.67544C28.5132 8.74251 28.3862 8.77669 28.2574 8.77394H23.6558C23.5146 8.77482 23.3771 8.81903 23.2618 8.90059L15.5504 14.1213C15.4603 14.1865 15.3869 14.2722 15.3364 14.3713C15.2858 14.4703 15.2594 14.58 15.2594 14.6912C15.2594 14.8024 15.2858 14.9121 15.3364 15.0112C15.3869 15.1102 15.4603 15.1959 15.5504 15.2611L16.9576 16.3447C17.066 16.4167 17.1933 16.4551 17.3235 16.4551C17.4536 16.4551 17.5809 16.4167 17.6893 16.3447L22.91 13.8117C23.0196 13.7501 23.1432 13.7177 23.2689 13.7177C23.3946 13.7177 23.5181 13.7501 23.6277 13.8117L25.6681 15.2189C25.8087 15.3203 25.9824 15.3651 26.1545 15.3442C26.3266 15.3234 26.4846 15.2384 26.5969 15.1063L27.3286 14.2339C27.4308 14.1162 27.5691 14.0358 27.7219 14.0052C27.8747 13.9746 28.0334 13.9957 28.1729 14.065L31.114 15.4722C31.1705 15.4966 31.2228 15.5298 31.2688 15.5707L33.0559 17.1468C33.1338 17.2151 33.2263 17.2646 33.3263 17.2914C33.4264 17.3182 33.5313 17.3217 33.6329 17.3016L35.4482 17.0201C35.5664 17.0005 35.6877 17.0113 35.8006 17.0517C35.9135 17.0921 36.0142 17.1606 36.0931 17.2509C36.172 17.3411 36.2266 17.45 36.2517 17.5672C36.2767 17.6844 36.2714 17.8061 36.2362 17.9207L35.7296 19.5671C35.6892 19.6952 35.6863 19.8321 35.7212 19.9618C35.7561 20.0915 35.8274 20.2084 35.9266 20.2989L40.4156 24.3938C40.5438 24.505 40.6244 24.6612 40.6407 24.8301L41.0207 27.6445C41.0351 27.7489 41.0728 27.8487 41.131 27.9366C41.1892 28.0245 41.2664 28.0982 41.3569 28.1522C41.4475 28.2062 41.549 28.2393 41.6539 28.2488C41.7589 28.2583 41.8647 28.2442 41.9635 28.2073L45.6081 26.8001C45.736 26.7589 45.8455 26.6743 45.9177 26.5609L48.0003 23.7465C48.107 23.6159 48.1621 23.4507 48.1551 23.2821L47.8174 21.4669C47.7932 21.3481 47.8 21.225 47.8373 21.1097C47.8746 20.9943 47.941 20.8906 48.0302 20.8085C48.1194 20.7263 48.2283 20.6687 48.3464 20.641C48.4644 20.6134 48.5876 20.6167 48.7039 20.6507L51.4198 21.4528C51.5418 21.4861 51.6522 21.5523 51.7391 21.6441C51.8259 21.7359 51.8859 21.8499 51.9124 21.9735L53.0803 27.1801C53.1096 27.3097 53.1749 27.4283 53.2688 27.5223C53.3626 27.6164 53.4812 27.6819 53.6107 27.7113C53.7403 27.7408 53.8755 27.7329 54.0008 27.6887C54.1261 27.6445 54.2363 27.5657 54.3187 27.4615L55.9792 25.3648C55.4186 20.7822 53.7202 16.4128 51.0386 12.6547C48.3571 8.89662 44.7777 5.86934 40.6266 3.84875Z" fill="#6DD627" stroke="#45413C" stroke-width="1.4072" stroke-linecap="round" stroke-linejoin="round"/>
<path d="M30.4526 3.01851L27.7648 2.25863C27.5969 2.19608 27.4121 2.19608 27.2442 2.25863L23.9091 4.11613C23.8023 4.16977 23.7113 4.25023 23.645 4.34963C23.5787 4.44903 23.5394 4.56396 23.5309 4.68315C23.5224 4.80233 23.545 4.92168 23.5965 5.0295C23.648 5.13732 23.7266 5.2299 23.8247 5.29817L24.8519 6.04399C24.9358 6.10013 25.03 6.13899 25.1291 6.15832C25.2281 6.17765 25.3301 6.17705 25.4289 6.15656L28.3699 5.45296H28.5388L30.5933 4.38349C30.7347 4.32363 30.8532 4.21997 30.9314 4.08776C31.0095 3.95555 31.0432 3.80176 31.0274 3.64899C31.0117 3.49622 30.9473 3.35254 30.8439 3.23905C30.7404 3.12556 30.6032 3.04826 30.4526 3.01851Z" fill="#6DD627" stroke="#45413C" stroke-width="1.4072" stroke-linecap="round" stroke-linejoin="round"/>
<path d="M34.2239 20.13H26.0622C25.8844 20.1257 25.7086 20.0925 25.5415 20.0315L22.3331 18.7791C22.1368 18.7001 21.9251 18.6664 21.7139 18.6806L16.1837 19.1028C15.4219 19.156 14.7061 19.4864 14.1714 20.0315L10.6534 23.648C10.3986 23.9124 10.2572 24.2659 10.2594 24.633V28.8546C10.2613 29.0827 10.3187 29.307 10.4265 29.508C10.5344 29.709 10.6895 29.8808 10.8785 30.0085L13.6085 31.866C13.8823 32.0471 14.2109 32.1268 14.5372 32.0912L20.0112 31.5705C20.2907 31.5356 20.5742 31.5853 20.825 31.7133C21.0759 31.8412 21.2826 32.0415 21.4184 32.2882L25.0209 38.7613C25.1957 39.0791 25.2411 39.4522 25.1475 39.8026L24.4861 42.3356C24.4343 42.5277 24.4238 42.7286 24.4553 42.9251C24.4869 43.1216 24.5597 43.3091 24.6691 43.4754L27.9619 48.4428C28.1111 48.6714 28.3236 48.8516 28.5735 48.9615C28.8233 49.0715 29.0998 49.1064 29.3691 49.062L33.7173 48.4147C33.9223 48.3847 34.1181 48.3099 34.2908 48.1956C34.4635 48.0813 34.6088 47.9303 34.7164 47.7533L38.8395 40.9143C38.9591 40.6844 39.0172 40.4275 39.0084 40.1685V36.3691C39.0084 36.1658 39.0524 35.965 39.1374 35.7803C39.2224 35.5957 39.3465 35.4317 39.5009 35.2996L43.0048 32.26C43.1642 32.128 43.2925 31.9624 43.3805 31.7751C43.4685 31.5879 43.5142 31.3835 43.5142 31.1765C43.5142 30.9696 43.4685 30.7651 43.3805 30.5779C43.2925 30.3906 43.1642 30.225 43.0048 30.093L41.1192 28.6717L36.3066 25.0974C36.1366 24.9736 35.9966 24.8132 35.8967 24.6282C35.7969 24.4431 35.7398 24.238 35.7296 24.0279L35.6311 21.4809C35.6166 21.1175 35.4619 20.7739 35.1996 20.5221C34.9372 20.2702 34.5876 20.1297 34.2239 20.13Z" fill="#6DD627" stroke="#45413C" stroke-width="1.4072" stroke-linecap="round" stroke-linejoin="round"/>
<path d="M43.0188 39.3383L40.6829 42.7437C40.6267 42.8222 40.5877 42.9116 40.5683 43.0061C40.5489 43.1007 40.5496 43.1982 40.5703 43.2925L41.0065 45.4455C41.0285 45.5565 41.077 45.6605 41.1478 45.7488C41.2187 45.8371 41.3097 45.907 41.4133 45.9525C41.5169 45.9981 41.6299 46.018 41.7428 46.0106C41.8557 46.0032 41.9652 45.9686 42.0619 45.9099L44.0461 44.7278C44.2027 44.6289 44.3139 44.4721 44.3556 44.2916L45.4673 39.9152C45.4953 39.8113 45.4991 39.7023 45.4783 39.5966C45.4576 39.491 45.4128 39.3915 45.3476 39.3059C45.2823 39.2202 45.1983 39.1507 45.102 39.1026C45.0056 39.0546 44.8995 39.0293 44.7919 39.0287H43.6098C43.4943 39.0319 43.3809 39.0615 43.2785 39.1151C43.1761 39.1688 43.0873 39.2451 43.0188 39.3383Z" fill="#6DD627" stroke="#45413C" stroke-width="1.4072" stroke-linecap="round" stroke-linejoin="round"/>
<path d="M38.3048 13.0237L37.5589 15.3315C37.5271 15.4297 37.5172 15.5336 37.53 15.636C37.5429 15.7384 37.578 15.8367 37.6331 15.924C37.6881 16.0113 37.7617 16.0854 37.8486 16.1411C37.9355 16.1968 38.0336 16.2326 38.1359 16.2462L41.288 16.6965C41.4097 16.7096 41.5327 16.692 41.6457 16.6453C41.7588 16.5986 41.8584 16.5242 41.9353 16.4291L42.9907 15.0219C43.0574 14.937 43.1031 14.8376 43.1244 14.7318C43.1456 14.626 43.1416 14.5166 43.1129 14.4126C43.0842 14.3086 43.0314 14.2127 42.9588 14.1328C42.8863 14.0529 42.796 13.9911 42.6952 13.9524L39.2476 12.5453C39.1547 12.5081 39.0549 12.4912 38.9549 12.4956C38.855 12.5001 38.7571 12.5258 38.6679 12.5711C38.5787 12.6164 38.5001 12.6802 38.4375 12.7582C38.3749 12.8363 38.3296 12.9268 38.3048 13.0237Z" fill="#00B8F0" stroke="#45413C" stroke-width="1.4072" stroke-linecap="round" stroke-linejoin="round"/>
</svg>
